<svg xmlns="http://www.w3.org/2000/svg" style="display: none;"><symbol id="heart" viewBox="0 -28 512.001 512"><title>heart</title><path d="m256 455.515625c-7.289062 0-14.316406-2.640625-19.792969-7.4375-20.683593-18.085937-40.625-35.082031-58.21875-50.074219l-.089843-.078125c-51.582032-43.957031-96.125-81.917969-127.117188-119.3125-34.644531-41.804687-50.78125-81.441406-50.78125-124.742187 0-42.070313 14.425781-80.882813 40.617188-109.292969 26.503906-28.746094 62.871093-44.578125 102.414062-44.578125 29.554688 0 56.621094 9.34375 80.445312 27.769531 12.023438 9.300781 22.921876 20.683594 32.523438 33.960938 9.605469-13.277344 20.5-24.660157 32.527344-33.960938 23.824218-18.425781 50.890625-27.769531 80.445312-27.769531 39.539063 0 75.910156 15.832031 102.414063 44.578125 26.191406 28.410156 40.613281 67.222656 40.613281 109.292969 0 43.300781-16.132812 82.9375-50.777344 124.738281-30.992187 37.398437-75.53125 75.355469-127.105468 119.308594-17.625 15.015625-37.597657 32.039062-58.328126 50.167969-5.472656 4.789062-12.503906 7.429687-19.789062 7.429687zm-112.96875-425.523437c-31.066406 0-59.605469 12.398437-80.367188 34.914062-21.070312 22.855469-32.675781 54.449219-32.675781 88.964844 0 36.417968 13.535157 68.988281 43.882813 105.605468 29.332031 35.394532 72.960937 72.574219 123.476562 115.625l.09375.078126c17.660156 15.050781 37.679688 32.113281 58.515625 50.332031 20.960938-18.253907 41.011719-35.34375 58.707031-50.417969 50.511719-43.050781 94.136719-80.222656 123.46875-115.617188 30.34375-36.617187 43.878907-69.1875 43.878907-105.605468 0-34.515625-11.605469-66.109375-32.675781-88.964844-20.757813-22.515625-49.300782-34.914062-80.363282-34.914062-22.757812 0-43.652344 7.234374-62.101562 21.5-16.441406 12.71875-27.894532 28.796874-34.609375 40.046874-3.453125 5.785157-9.53125 9.238282-16.261719 9.238282s-12.808594-3.453125-16.261719-9.238282c-6.710937-11.25-18.164062-27.328124-34.609375-40.046874-18.449218-14.265626-39.34375-21.5-62.097656-21.5zm0 0"/></symbol><symbol id="star" viewBox="0 -10 511.98685 511"><title>star</title><path d="m114.59375 491.140625c-5.609375 0-11.179688-1.75-15.933594-5.1875-8.855468-6.417969-12.992187-17.449219-10.582031-28.09375l32.9375-145.089844-111.703125-97.960937c-8.210938-7.167969-11.347656-18.519532-7.976562-28.90625 3.371093-10.367188 12.542968-17.707032 23.402343-18.710938l147.796875-13.417968 58.433594-136.746094c4.308594-10.046875 14.121094-16.535156 25.023438-16.535156 10.902343 0 20.714843 6.488281 25.023437 16.511718l58.433594 136.769532 147.773437 13.417968c10.882813.980469 20.054688 8.34375 23.425782 18.710938 3.371093 10.367187.253906 21.738281-7.957032 28.90625l-111.703125 97.941406 32.9375 145.085938c2.414063 10.667968-1.726562 21.699218-10.578125 28.097656-8.832031 6.398437-20.609375 6.890625-29.910156 1.300781l-127.445312-76.160156-127.445313 76.203125c-4.308594 2.558594-9.109375 3.863281-13.953125 3.863281zm141.398438-112.875c4.84375 0 9.640624 1.300781 13.953124 3.859375l120.277344 71.9375-31.085937-136.941406c-2.21875-9.746094 1.089843-19.921875 8.621093-26.515625l105.472657-92.5-139.542969-12.671875c-10.046875-.917969-18.6875-7.234375-22.613281-16.492188l-55.082031-129.046875-55.148438 129.066407c-3.882812 9.195312-12.523438 15.511718-22.546875 16.429687l-139.5625 12.671875 105.46875 92.5c7.554687 6.613281 10.859375 16.769531 8.621094 26.539062l-31.0625 136.9375 120.277343-71.914062c4.308594-2.558594 9.109376-3.859375 13.953126-3.859375zm-84.585938-221.847656s0 .023437-.023438.042969zm169.128906-.0625.023438.042969c0-.023438 0-.023438-.023438-.042969zm0 0"/></symbol><symbol id="film" viewBox="0 -63 512.00146 512"><title>film</title><path d="m189.992188 29.296875c-88.609376 0-160.699219 72.085937-160.699219 160.695313 0 88.609374 72.089843 160.699218 160.699219 160.699218 88.609374 0 160.699218-72.089844 160.699218-160.699218 0-88.609376-72.089844-160.695313-160.699218-160.695313zm0 306.398437c-80.339844 0-145.699219-65.363281-145.699219-145.699218 0-80.339844 65.359375-145.699219 145.699219-145.699219 80.339843 0 145.699218 65.359375 145.699218 145.699219 0 80.335937-65.359375 145.699218-145.699218 145.699218zm0 0"/><path d="m163.976562 189.996094c0 14.34375 11.671876 26.015625 26.015626 26.015625 14.347656 0 26.015624-11.671875 26.015624-26.015625 0-14.347656-11.667968-26.019532-26.015624-26.019532-14.34375 0-26.015626 11.671876-26.015626 26.019532zm37.035157 0c0 6.074218-4.945313 11.015625-11.019531 11.015625-6.074219 0-11.015626-4.941407-11.015626-11.015625 0-6.078125 4.941407-11.019532 11.015626-11.019532 6.074218 0 11.019531 4.941407 11.019531 11.019532zm0 0"/><path d="m228.152344 189.996094c0 24.144531 19.515625 45.378906 45.378906 45.378906 25.023438 0 45.378906-20.355469 45.378906-45.378906 0-25.023438-20.355468-45.382813-45.378906-45.382813-25.109375 0-45.378906 20.503907-45.378906 45.382813zm33.214844 27.832031c-24.207032-10.609375-24.164063-45.101563 0-55.664063 6.816406 17.386719 7.125 37.484376 0 55.664063zm15.101562-58.070313c15.378906 1.484376 27.445312 14.476563 27.445312 30.234376 0 15.761718-12.066406 28.753906-27.445312 30.238281 6.824219-19.429688 6.839844-41 0-60.472657zm0 0"/><path d="m189.992188 228.152344c-25.074219 0-45.378907 20.46875-45.378907 45.378906 0 25.023438 20.355469 45.382812 45.378907 45.382812 25.023437 0 45.382812-20.359374 45.382812-45.382812 0-25.003906-20.390625-45.378906-45.382812-45.378906zm27.832031 33.21875c-17.386719 6.8125-37.484375 7.121094-55.664063 0 10.851563-24.59375 45.214844-23.933594 55.664063 0zm-27.832031 42.539062c-15.757813 0-28.75-12.0625-30.234376-27.441406 19.429688 6.824219 41 6.839844 60.472657 0-1.484375 15.378906-14.476563 27.441406-30.238281 27.441406zm0 0"/><path d="m106.457031 144.613281c-25.023437 0-45.382812 20.359375-45.382812 45.382813 0 25.023437 20.359375 45.378906 45.382812 45.378906 22.199219 0 40.933594-16.125 44.6875-37.527344 4.921875-27.691406-16.582031-53.234375-44.6875-53.234375zm-2.941406 75.617188c-15.378906-1.484375-27.441406-14.476563-27.441406-30.234375 0-15.761719 12.0625-28.753906 27.441406-30.238282-6.824219 19.433594-6.835937 41 0 60.472657zm15.101563-2.402344c-6.796876-17.355469-7.136719-37.449219 0-55.664063 24.160156 10.585938 24.355468 45.011719 0 55.664063zm0 0"/><path d="m189.992188 151.835938c24.957031 0 45.382812-20.347657 45.382812-45.378907 0-25.023437-20.359375-45.382812-45.382812-45.382812-25.023438 0-45.378907 20.359375-45.378907 45.382812 0 25.023438 20.414063 45.378907 45.378907 45.378907zm-27.832032-33.21875c17.390625-6.8125 37.484375-7.121094 55.664063 0-10.644531 24.214843-45.019531 24.207031-55.664063 0zm27.832032-42.542969c15.761718 0 28.753906 12.066406 30.238281 27.445312-19.429688-6.824219-41-6.839843-60.472657 0 1.484376-15.378906 14.476563-27.445312 30.234376-27.445312zm0 0"/><path d="m150.089844 375.757812c2.949218.828126 25.9375 6.46875 61.695312 8.554688 83.855469 4.886719 142.90625-14.210938 169.550782-20.617188 4.027343-.96875 6.507812-5.019531 5.535156-9.046874-.964844-4.023438-5.011719-6.503907-9.042969-5.539063-23.4375 5.636719-63.6875 18.945313-126.292969 20.707031 7.863282-2.703125 16.371094-6.324218 23.273438-9.773437 27.167968-6.070313 61.800781-17.863281 105.816406-36.035157 51.335938-21.199218 97.089844-20.855468 115.796875-19.507812l-18.214844 35.492188c-9.84375-2.609376-28.960937-4.285157-64.871093 1.765624-4.085938.6875-6.839844 4.558594-6.148438 8.640626.6875 4.085937 4.546875 6.84375 8.640625 6.152343 37.339844-6.292969 53.769531-3.429687 59.101563-1.90625 6.371093 1.820313 13.214843-1.160156 16.261718-7.09375l19.25-37.519531c4.566406-8.894531-1.390625-19.570312-11.351562-20.371094-18.769532-1.511718-68.449219-2.53125-124.1875 20.480469-22.277344 9.199219-42.046875 16.710937-59.59375 22.648437 36.457031-32.023437 59.0625-76.242187 63.753906-124.003906.40625-4.121094-2.605469-7.789062-6.730469-8.195312-4.117187-.40625-7.792969 2.609375-8.195312 6.730468-8.996094 91.542969-85.628907 157.667969-174.140625 157.667969-96.480469 0-174.996094-78.492187-174.996094-174.992187 0-96.492188 78.5-174.996094 174.992188-174.996094 91 0 165.902343 68.246094 174.234374 158.742188.382813 4.125 4.03125 7.152343 8.15625 6.78125 4.125-.382813 7.164063-4.03125 6.78125-8.15625-8.933593-97.011719-90.519531-172.367188-189.171874-172.367188-104.761719 0-189.992188 85.230469-189.992188 189.996094 0 91.078125 64.421875 167.378906 150.089844 185.761718zm0 0"/></symbol><symbol id="close" viewBox="0 0 512 512"><title>close</title><path d="M256,0C114.844,0,0,114.844,0,256s114.844,256,256,256s256-114.844,256-256S397.156,0,256,0z M256,490.667 C126.604,490.667,21.333,385.396,21.333,256S126.604,21.333,256,21.333S490.667,126.604,490.667,256S385.396,490.667,256,490.667 z"/><path d="M359.542,152.458c-4.167-4.167-10.917-4.167-15.083,0L256,240.917l-88.458-88.458c-4.167-4.167-10.917-4.167-15.083,0 c-4.167,4.167-4.167,10.917,0,15.083L240.917,256l-88.458,88.458c-4.167,4.167-4.167,10.917,0,15.083 c2.083,2.083,4.813,3.125,7.542,3.125s5.458-1.042,7.542-3.125L256,271.083l88.458,88.458c2.083,2.083,4.813,3.125,7.542,3.125 c2.729,0,5.458-1.042,7.542-3.125c4.167-4.167,4.167-10.917,0-15.083L271.083,256l88.458-88.458 C363.708,163.375,363.708,156.625,359.542,152.458z"/></symbol><symbol id="tv" viewBox="0 0 512 512"><title>tv</title><path d="m273 451c-5.519531 0-10 4.488281-10 10s4.480469 10 10 10c5.511719 0 10-4.488281 10-10s-4.488281-10-10-10zm0 0"/><path d="m462 0h-412c-27.570312 0-50 22.429688-50 50v332c0 27.570312 22.429688 50 50 50h86.320312l-32.765624 65.527344c-1.546876 3.101562-1.382813 6.78125.4375 9.730468 1.824218 2.945313 5.042968 4.742188 8.507812 4.742188h287c3.464844 0 6.683594-1.792969 8.507812-4.742188 1.820313-2.949218 1.984376-6.628906.4375-9.730468l-32.765624-65.527344h86.320312c27.570312 0 50-22.429688 50-50v-332c0-27.570312-22.429688-50-50-50zm-412 20h412c13.039062 0 24.160156 8.359375 28.285156 20h-468.570312c4.125-11.640625 15.246094-20 28.285156-20zm333.320312 472h-254.640624l10.5-21h93.820312c5.511719 0 10-4.488281 10-10s-4.488281-10-10-10h-83.820312l9.5-19h194.640624zm108.679688-110c0 16.542969-13.457031 30-30 30h-412c-16.542969 0-30-13.457031-30-30v-30h472zm0-50h-472v-272h472zm0 0"/><path d="m195.285156 106.722656h16.558594v65.597656c0 4.527344 5.847656 5.800782 9.359375 5.800782 3.550781 0 9.359375-1.3125 9.359375-5.800782v-65.597656h16.5625c4.136719 0 5.640625-4.917968 5.640625-8.277344 0-3.457031-1.535156-8.042968-5.640625-8.042968 0 0-51.617188 0-51.839844 0-4.136718 0-5.640625 4.617187-5.640625 8.042968 0 3.417969 1.519531 8.277344 5.640625 8.277344zm0 0"/><path d="m291.28125 172.601562c1.511719 4.921876 7.765625 6.242188 12.242188 6.242188 4.441406 0 10.695312-1.429688 12.238281-6.242188 0 0 22.230469-72.910156 22.320312-73.199218.886719-2.914063-1.253906-5.3125-3.660156-6.71875-3.414063-2-12.625-4.582032-14.21875 1.199218l-16.679687 61.558594s-16.726563-61.28125-16.800782-61.558594c-1.570312-5.746093-10.792968-3.203124-14.222656-1.199218-2.375 1.386718-4.402344 3.765625-3.660156 6.71875.003906 0 22.382812 72.996094 22.441406 73.199218zm0 0"/><path d="m121.792969 274.933594c-2.390625 1.464844-5.558594 2.070312-8.109375 2.070312-6.894532 0-11.03125-4.394531-16.378906-7.90625-3.566407-2.335937-7.25-1.464844-9.71875 1.90625-1.640626 2.238282-2.460938 4.480469-2.460938 6.71875 0 4 2.878906 7.601563 8.640625 10.800782 5.757813 3.199218 12.519531 4.796874 20.28125 4.796874 8.957031 0 16.199219-2.296874 21.71875-6.890624 5.519531-4.597657 8.28125-11.019532 8.28125-19.269532 0-4.71875-.941406-8.917968-2.820313-12.597656-5.609374-10.984375-18.054687-14.722656-28.367187-19.695312-3.027344-1.460938-6.851563-3.859376-6.851563-7.664063-.003906-9.800781 16.148438-7.574219 21.585938-5.261719 2.078125.882813 4.503906 2.621094 6.851562 2.621094 2.320313 0 4.140626-1.140625 5.460938-3.417969 2.28125-3.9375 3.03125-9.003906-.71875-12.269531-5.261719-4.578125-14.574219-5.195312-21.179688-5.195312-7.703124 0-16.125 2.042968-22.429687 6.816406-5.84375 4.429687-8.292969 11.34375-8.292969 18.503906 0 9.367188 5.234375 17.691406 13.441406 22.140625 3.757813 2.039063 7.5 3.882813 11.21875 5.519531 5.03125 2.21875 13.378907 5.867188 13.378907 12.417969 0 2.699219-1.476563 4.59375-3.53125 5.855469zm0 0"/><path d="m170.425781 290.65625c1.980469 1.105469 4.648438 1.464844 6.617188 1.464844 3.550781 0 9.359375-1.222656 9.359375-5.757813v-32.519531h23.882812v32.515625c0 4.53125 5.855469 5.761719 9.359375 5.761719 3.546875 0 9.359375-1.210938 9.359375-5.757813 0 0 0-75.988281 0-76.320312 0-4.527344-5.902344-5.640625-9.359375-5.640625-3.511719 0-9.359375 1.097656-9.359375 5.640625v29.398437h-23.882812s0-29.238281 0-29.398437c0-4.527344-5.882813-5.640625-9.359375-5.640625-3.511719 0-9.359375 1.097656-9.359375 5.640625v76.316406c0 2.042969 1.152344 3.410156 2.742187 4.296875zm0 0"/><path d="m263.441406 286c5.359375 4.5625 12.480469 6.839844 21.359375 6.839844 8.960938 0 16.121094-2.277344 21.480469-6.839844 5.359375-4.558594 8.039062-11.71875 8.039062-21.480469v-31.796875c0-9.761718-2.679687-16.921875-8.039062-21.480468-5.359375-4.5625-12.519531-6.839844-21.480469-6.839844-8.878906 0-16 2.277344-21.359375 6.839844-5.359375 4.558593-8.039062 11.71875-8.039062 21.480468v31.796875c0 9.761719 2.679687 16.921875 8.039062 21.480469zm10.679688-53.277344c0-8 3.5625-12 10.683594-12 7.199218 0 10.796874 4 10.796874 12v31.800782c0 8-3.597656 12-10.796874 12-7.121094 0-10.683594-4-10.683594-12zm0 0"/><path d="m334.601562 211.84375c-.015624.496094.058594 1.015625.238282 1.558594 0 0 23.808594 72.980468 23.882812 73.199218 1.5625 4.796876 7.953125 6.242188 12.359375 6.242188 4.339844 0 10.921875-1.234375 12.121094-6.242188l6.238281-28.4375s6.222656 28.363282 6.242188 28.4375c1.089844 4.984376 7.886718 6.242188 12.117187 6.242188 4.390625 0 10.664063-1.523438 12.359375-6.242188l23.878906-73.199218c.160157-.480469.242188-1 .242188-1.558594 0-1.921875-1.300781-3.640625-3.898438-5.160156-3.519531-2.058594-12.640624-4.527344-14.222656 1.199218l-18.238281 61.558594-9.480469-40.558594c-.78125-3.695312-5.789062-4.917968-9-4.917968-3.125 0-8.222656 1.207031-9 4.917968l-9.480468 40.558594s-18.199219-61.429687-18.238282-61.558594c-1.683594-5.671874-10.703125-3.257812-14.222656-1.199218-1.957031 1.140625-3.832031 2.914062-3.898438 5.160156zm0 0"/></symbol></svg>